<?xml version="1.0" standalone="no"?>
<!DOCTYPE svg PUBLIC "-//W3C//DTD SVG 20010904//EN"
 "http://www.w3.org/TR/2001/REC-SVG-20010904/DTD/svg10.dtd">
<svg version="1.0" xmlns="http://www.w3.org/2000/svg"
 width="1024.000000pt" height="1024.000000pt" viewBox="0 0 1024.000000 1024.000000"
 preserveAspectRatio="xMidYMid meet">
<metadata>
Created by potrace 1.14, written by Peter Selinger 2001-2017
</metadata>
<g transform="translate(0.000000,1024.000000) scale(0.100000,-0.100000)"
fill="#000000" stroke="none">
<path d="M3098 9235 c-2 -2 -75 -6 -163 -9 -181 -8 -271 -15 -375 -31 -8 -2
-33 -5 -55 -9 -22 -3 -86 -17 -143 -31 -352 -86 -678 -283 -901 -546 -101
-119 -134 -166 -202 -286 -25 -46 -50 -79 -54 -75 -5 4 -5 2 -1 -5 4 -7 2 -20
-3 -30 -17 -32 -38 -86 -67 -168 -15 -44 -32 -82 -36 -83 -4 -2 -6 -7 -3 -12
3 -4 -2 -36 -11 -69 -21 -85 -24 -99 -31 -156 -3 -27 -9 -54 -13 -60 -3 -5 -6
-25 -4 -42 1 -18 -1 -33 -5 -33 -3 0 -7 -19 -7 -43 -4 -133 -10 -195 -18 -190
-5 4 -6 1 -1 -7 12 -20 5 -183 -8 -192 -9 -6 -9 -8 0 -8 14 0 14 -86 0 -107
-4 -6 -4 -14 1 -17 4 -2 7 -69 5 -148 -1 -79 -3 -179 -3 -223 -1 -44 -7 -86
-13 -94 -9 -12 -9 -13 0 -8 10 6 12 -82 13 -403 0 -327 -2 -410 -12 -404 -10
6 -11 4 0 -7 16 -18 16 -83 0 -73 -10 6 -10 4 0 -7 16 -18 16 -83 0 -73 -10 6
-10 4 0 -7 17 -18 17 -83 -1 -73 -9 6 -9 5 0 -7 18 -22 19 -724 1 -713 -10 6
-11 5 -1 -7 11 -13 19 -278 14 -434 -1 -22 -1 -67 1 -105 2 -62 -2 -81 -14
-74 -9 5 -9 3 1 -9 15 -19 22 -247 8 -247 -5 0 -5 -6 -1 -12 10 -16 13 -48 4
-48 -4 0 -7 -7 -7 -15 0 -8 4 -15 9 -15 5 0 4 -9 -2 -19 -5 -11 -7 -22 -2 -25
10 -6 8 -157 -2 -174 -4 -7 -3 -12 1 -12 5 0 9 -16 9 -35 0 -19 -5 -35 -11
-35 -7 0 -7 -3 0 -8 12 -8 14 -132 2 -132 -4 0 -5 -6 -1 -12 12 -19 11 -108
-1 -108 -7 0 -7 -3 0 -8 6 -4 11 -47 11 -97 1 -138 14 -387 21 -398 4 -6 1 -7
-7 -2 -8 5 -11 4 -6 -3 9 -15 19 -88 20 -154 1 -31 4 -54 7 -53 9 6 31 -144
23 -156 -5 -8 -3 -9 6 -4 10 6 12 1 8 -18 -3 -16 -1 -24 5 -20 6 4 8 -2 5 -15
-4 -14 -2 -20 4 -16 7 5 9 -2 6 -19 -3 -16 -1 -24 5 -20 6 4 8 -4 5 -20 -3
-15 -2 -24 3 -22 4 3 10 -8 14 -25 4 -16 11 -32 16 -35 5 -4 9 -15 9 -26 0
-10 4 -27 9 -37 43 -82 104 -215 104 -227 0 -8 3 -12 7 -10 4 2 33 -36 65 -85
33 -50 63 -90 67 -90 4 0 8 -4 8 -10 0 -12 26 -44 68 -83 18 -17 30 -37 27
-44 -2 -8 -1 -12 4 -8 13 7 43 -24 35 -37 -4 -7 -2 -8 5 -4 7 5 29 -10 57 -38
25 -25 49 -46 54 -46 6 0 10 -4 10 -8 0 -4 14 -16 30 -25 17 -10 30 -26 30
-35 0 -15 2 -15 10 -2 6 10 10 11 10 3 0 -7 7 -13 15 -13 8 0 15 -3 15 -8 0
-4 18 -18 40 -32 22 -14 40 -28 40 -32 0 -5 9 -8 20 -8 12 0 24 -10 30 -22 5
-13 9 -17 9 -10 1 6 6 12 12 12 6 0 9 -6 6 -14 -4 -10 0 -12 14 -9 11 3 19 0
19 -6 0 -7 5 -9 12 -5 8 5 9 1 4 -12 -5 -15 -4 -16 5 -7 8 8 18 9 35 1 13 -6
24 -14 24 -17 0 -4 10 -7 22 -8 11 -1 24 -7 28 -14 4 -6 13 -8 19 -5 6 4 11 3
11 -2 0 -13 -25 -33 -33 -26 -3 3 -4 -1 -3 -10 1 -8 5 -18 9 -21 4 -3 5 -2 2
2 -3 3 4 16 15 28 19 20 24 21 55 11 19 -7 38 -15 41 -19 4 -4 18 -7 31 -7 21
0 28 -10 24 -33 -1 -5 3 -6 9 -2 6 3 7 11 4 17 -9 14 39 -1 48 -16 5 -8 8 -7
8 2 0 7 4 11 9 7 5 -3 8 -18 5 -33 -3 -19 -2 -23 5 -12 5 8 8 17 5 21 -2 4 3
10 12 13 11 4 15 2 11 -7 -3 -7 3 -13 13 -13 10 0 16 4 14 8 -3 4 0 8 5 8 6 0
11 -3 11 -7 0 -5 10 -9 23 -9 63 -5 97 -10 97 -15 0 -3 15 -6 33 -7 17 -1 57
-4 87 -8 30 -3 63 -6 73 -6 11 1 15 -4 10 -11 -4 -7 2 -5 12 3 15 12 17 12 10
1 -6 -10 -4 -12 6 -6 7 5 34 7 59 6 25 -2 56 -4 70 -5 15 0 24 -6 22 -14 -1
-8 2 -11 8 -7 6 3 8 10 5 15 -6 9 108 6 124 -4 6 -4 11 -2 11 4 0 6 5 8 10 5
6 -4 7 -12 4 -18 -5 -8 -3 -8 7 0 15 15 63 18 54 4 -3 -5 -1 -13 5 -16 6 -4 9
-1 8 6 -2 6 3 14 11 17 10 3 12 0 8 -11 -4 -11 -2 -14 8 -10 8 3 13 9 10 13
-7 11 277 7 294 -4 9 -6 12 -5 8 1 -4 6 23 10 73 10 50 0 77 -4 73 -10 -4 -6
-1 -7 8 -1 22 13 241 15 233 2 -5 -7 -2 -8 6 -3 7 4 37 10 67 12 42 4 53 2 48
-8 -6 -8 -4 -10 6 -3 22 13 201 16 193 2 -5 -7 -3 -8 6 -3 7 4 37 10 67 12 42
4 53 2 48 -8 -6 -8 -4 -10 6 -3 22 13 201 16 193 2 -5 -7 -3 -8 6 -3 7 4 37
10 67 12 42 4 53 2 48 -8 -6 -8 -4 -10 6 -3 22 13 201 16 193 2 -5 -7 -3 -8 6
-3 7 4 37 10 67 12 42 4 53 2 48 -8 -6 -9 -4 -9 6 -3 20 13 360 14 352 1 -4
-6 -1 -7 8 -1 21 13 240 14 232 1 -4 -6 -1 -7 8 -1 8 4 56 9 107 11 71 2 91 0
86 -10 -5 -8 -2 -7 9 2 14 11 20 11 34 0 11 -10 14 -10 9 -1 -5 8 0 12 14 12
14 0 19 -4 14 -12 -5 -9 -2 -9 9 1 14 11 20 11 34 0 11 -10 14 -10 9 -1 -5 8
0 12 14 12 14 0 19 -4 14 -12 -5 -9 -2 -9 9 1 14 11 20 11 34 0 11 -10 14 -10
9 -1 -5 8 0 12 14 12 14 0 19 -4 14 -12 -5 -9 -2 -9 9 1 14 11 20 11 34 0 9
-8 14 -9 10 -3 -4 8 29 11 113 11 77 0 117 -4 113 -10 -4 -6 -1 -7 8 -1 21 13
240 14 232 1 -4 -6 -1 -7 8 -1 22 14 200 14 192 0 -4 -6 1 -5 10 3 14 11 20
11 34 0 11 -10 14 -10 9 -1 -5 8 0 12 14 12 14 0 19 -4 14 -12 -5 -9 -2 -9 9
1 14 11 20 11 34 0 11 -10 14 -10 9 -1 -5 8 0 12 14 12 14 0 19 -4 14 -12 -5
-9 -2 -9 9 1 14 11 20 11 34 0 10 -8 14 -9 10 -2 -5 8 4 12 33 11 22 0 37 -4
35 -9 -3 -4 6 -2 21 6 24 12 29 12 43 -3 9 -10 13 -13 9 -8 -14 17 -9 27 9 18
9 -6 29 -6 45 -2 16 5 30 5 34 -1 3 -5 10 -6 16 -3 19 12 92 11 107 0 11 -8
13 -8 8 0 -7 11 27 14 200 17 34 0 60 3 58 7 -2 3 14 6 36 7 21 0 37 -2 34 -6
-2 -4 2 -8 9 -8 8 0 12 5 10 11 -4 12 21 18 84 20 17 0 32 5 32 10 0 5 7 3 15
-4 12 -10 13 -16 3 -29 -10 -12 -8 -12 8 2 11 9 24 14 29 10 4 -5 5 -2 1 5 -4
7 -11 10 -16 7 -5 -3 -11 -1 -14 4 -8 12 69 25 85 15 8 -4 9 -3 5 4 -4 7 -4
12 1 13 4 0 17 3 28 5 11 3 27 6 35 6 8 0 20 4 25 8 11 8 60 21 72 19 5 0 6
-6 5 -13 -2 -6 0 -7 5 -3 4 5 8 13 8 18 0 5 5 9 10 10 6 0 16 5 22 11 7 6 20
8 28 4 9 -3 14 -2 11 3 -8 12 72 43 86 35 6 -4 8 -3 5 3 -6 9 42 37 58 34 3
-1 14 8 25 19 11 11 31 22 45 26 14 3 25 11 25 18 0 6 5 4 10 -4 8 -13 10 -12
10 3 0 10 8 21 18 24 9 4 30 17 46 30 18 15 36 22 50 18 11 -2 16 -2 9 1 -15
7 -5 34 13 34 8 0 24 11 36 25 15 17 29 23 45 21 13 -3 21 -1 18 5 -4 5 -11 7
-16 4 -19 -13 -8 7 19 30 31 28 44 32 36 11 -3 -8 0 -17 7 -22 8 -4 10 -3 5 5
-4 6 -2 19 6 28 9 12 9 15 1 9 -27 -16 -11 11 31 52 25 24 49 41 55 38 5 -4
13 -2 16 4 4 6 3 10 -2 9 -21 -4 -21 3 -1 26 11 13 25 22 30 19 4 -3 8 4 8 15
0 11 15 32 33 46 17 15 25 23 17 19 -8 -4 -3 8 13 27 15 18 32 44 37 57 6 13
14 20 20 17 5 -3 7 0 5 7 -3 8 4 24 15 36 11 12 18 22 15 22 -3 0 2 13 11 29
10 17 21 28 25 25 5 -2 6 5 4 16 -2 11 2 26 10 34 8 7 18 29 23 47 5 19 14 33
20 32 6 -2 9 3 7 10 -7 17 30 109 40 100 4 -5 5 -2 1 4 -4 7 2 43 14 79 11 37
22 79 25 93 3 14 7 37 11 51 13 56 34 187 34 218 0 24 4 31 13 26 9 -6 9 -5 0
8 -7 8 -10 17 -7 21 3 3 8 59 11 124 3 65 10 124 17 132 7 9 7 12 0 8 -12 -7
-12 142 0 161 3 6 2 13 -4 17 -6 4 -8 11 -4 16 3 6 6 95 6 200 0 139 3 187 12
182 6 -3 6 -1 -1 8 -17 18 -17 83 0 73 9 -6 9 -4 0 7 -17 18 -17 83 0 73 9 -6
9 -4 0 7 -17 18 -17 83 0 73 9 -6 9 -4 0 7 -17 18 -17 83 0 73 9 -6 9 -4 0 7
-17 18 -17 83 0 73 9 -6 9 -4 0 7 -17 18 -17 83 0 73 9 -6 9 -4 -1 7 -17 18
-17 83 1 73 9 -6 9 -5 0 7 -18 22 -19 723 -1 713 10 -6 11 -4 1 7 -17 18 -17
83 0 73 9 -6 9 -4 0 7 -17 18 -17 83 0 73 9 -6 9 -4 0 7 -17 18 -17 83 0 73 9
-6 9 -4 0 7 -17 18 -17 83 0 73 9 -6 9 -4 0 7 -17 18 -17 83 0 73 9 -6 9 -4 0
7 -17 18 -17 83 0 73 9 -6 9 -4 0 7 -18 18 -18 83 0 73 9 -6 9 -5 0 7 -18 22
-19 723 -1 713 10 -6 11 -4 1 7 -17 18 -17 83 0 73 10 -6 10 -4 0 7 -17 18
-17 83 0 73 10 -6 10 -4 0 7 -17 18 -17 83 0 73 10 -6 10 -4 0 7 -17 18 -17
83 0 73 10 -6 10 -4 0 7 -17 18 -17 83 0 73 10 -6 10 -4 0 7 -17 18 -17 83 0
73 10 -6 10 -4 0 7 -17 17 -17 61 0 78 7 9 8 11 0 7 -8 -4 -11 47 -11 199 0
113 -2 208 -5 211 -3 4 -2 17 3 30 6 14 6 26 0 29 -7 4 -7 13 0 24 5 10 6 22
2 26 -11 11 -9 75 3 75 6 0 5 4 -1 8 -7 4 -12 30 -13 57 -1 82 -9 211 -15 242
-3 15 -8 50 -11 76 -3 26 -10 71 -15 98 -6 28 -7 55 -4 60 3 5 0 9 -5 9 -6 0
-11 11 -11 24 0 13 -7 42 -15 65 -8 22 -12 41 -10 41 6 0 -52 165 -77 220 -65
142 -80 170 -149 275 -50 75 -62 91 -124 163 -319 371 -765 583 -1299 618 -50
3 -111 8 -136 11 -44 5 -4256 13 -4262 8z"/>
<path d="M1090 2199 c0 -5 5 -7 10 -4 6 3 10 8 10 11 0 2 -4 4 -10 4 -5 0 -10
-5 -10 -11z"/>
<path d="M1116 2113 c-6 -14 -5 -15 5 -6 7 7 10 15 7 18 -3 3 -9 -2 -12 -12z"/>
<path d="M9070 2061 c0 -6 4 -13 10 -16 6 -3 7 1 4 9 -7 18 -14 21 -14 7z"/>
<path d="M1296 1798 c3 -5 10 -6 15 -3 13 9 11 12 -6 12 -8 0 -12 -4 -9 -9z"/>
<path d="M1290 1776 c0 -2 8 -10 18 -17 15 -13 16 -12 3 4 -13 16 -21 21 -21
13z"/>
<path d="M8904 1762 c4 -3 14 -7 22 -8 9 -1 13 0 10 4 -4 3 -14 7 -22 8 -9 1
-13 0 -10 -4z"/>
<path d="M1335 1751 c-3 -5 -2 -12 3 -15 5 -3 9 1 9 9 0 17 -3 19 -12 6z"/>
<path d="M8850 1691 c0 -6 4 -13 10 -16 6 -3 7 1 4 9 -7 18 -14 21 -14 7z"/>
<path d="M1389 1643 c-13 -16 -12 -17 4 -4 16 13 21 21 13 21 -2 0 -10 -8 -17
-17z"/>
<path d="M1473 1572 c-1 -22 0 -24 9 -8 6 10 6 22 2 26 -5 5 -10 -3 -11 -18z"/>
<path d="M1615 1431 c-3 -5 -2 -12 3 -15 5 -3 9 1 9 9 0 17 -3 19 -12 6z"/>
<path d="M1670 1386 c0 -2 7 -7 16 -10 8 -3 12 -2 9 4 -6 10 -25 14 -25 6z"/>
<path d="M8495 1311 c-3 -5 -2 -12 3 -15 5 -3 9 1 9 9 0 17 -3 19 -12 6z"/>
<path d="M1746 1302 c-3 -5 1 -9 9 -9 8 0 12 4 9 9 -3 4 -7 8 -9 8 -2 0 -6 -4
-9 -8z"/>
<path d="M1780 1306 c0 -2 8 -10 18 -17 15 -13 16 -12 3 4 -13 16 -21 21 -21
13z"/>
<path d="M8455 1261 c-3 -5 -2 -12 3 -15 5 -3 9 1 9 9 0 17 -3 19 -12 6z"/>
<path d="M8377 1235 c-4 -8 -3 -16 1 -19 4 -3 9 4 9 15 2 23 -3 25 -10 4z"/>
<path d="M1950 1200 c0 -5 5 -10 11 -10 5 0 7 5 4 10 -3 6 -8 10 -11 10 -2 0
-4 -4 -4 -10z"/>
<path d="M8256 1193 c-6 -14 -5 -15 5 -6 7 7 10 15 7 18 -3 3 -9 -2 -12 -12z"/>
<path d="M8275 1160 c-3 -5 -1 -10 4 -10 6 0 11 5 11 10 0 6 -2 10 -4 10 -3 0
-8 -4 -11 -10z"/>
<path d="M8153 1133 c0 -9 4 -10 14 -2 7 6 13 12 13 14 0 1 -6 2 -13 2 -8 0
-14 -6 -14 -14z"/>
<path d="M2190 1116 c0 -2 8 -10 18 -17 15 -13 16 -12 3 4 -13 16 -21 21 -21
13z"/>
<path d="M8125 1100 c-3 -6 1 -7 9 -4 18 7 21 14 7 14 -6 0 -13 -4 -16 -10z"/>
<path d="M7975 1080 c-4 -6 -1 -9 7 -8 7 2 12 -3 10 -10 -1 -8 2 -11 8 -7 8 5
7 11 -1 21 -14 17 -16 17 -24 4z"/>
<path d="M2295 1070 c-3 -6 1 -7 9 -4 18 7 21 14 7 14 -6 0 -13 -4 -16 -10z"/>
<path d="M2190 1059 c0 -5 5 -7 10 -4 6 3 10 8 10 11 0 2 -4 4 -10 4 -5 0 -10
-5 -10 -11z"/>
<path d="M2304 1042 c4 -3 14 -7 22 -8 9 -1 13 0 10 4 -4 3 -14 7 -22 8 -9 1
-13 0 -10 -4z"/>
<path d="M2450 1042 c0 -5 7 -9 15 -9 8 0 12 4 9 9 -3 4 -9 8 -15 8 -5 0 -9
-4 -9 -8z"/>
<path d="M7855 1039 c-3 -4 2 -6 10 -5 21 3 28 13 10 13 -9 0 -18 -4 -20 -8z"/>
<path d="M7679 1028 c-6 -21 -5 -37 2 -32 5 3 7 9 4 14 -3 4 1 11 7 13 10 4
10 6 1 6 -7 1 -13 0 -14 -1z"/>
<path d="M7715 1022 c3 -3 -1 -12 -7 -21 -8 -10 -4 -9 10 3 26 23 26 23 7 23
-8 0 -13 -3 -10 -5z"/>
<path d="M7930 1020 c0 -5 5 -10 11 -10 5 0 7 5 4 10 -3 6 -8 10 -11 10 -2 0
-4 -4 -4 -10z"/>
<path d="M2456 1007 c3 -10 9 -15 12 -12 3 3 0 11 -7 18 -10 9 -11 8 -5 -6z"/>
<path d="M2650 1001 c0 -6 4 -12 8 -15 5 -3 9 1 9 9 0 8 -4 15 -9 15 -4 0 -8
-4 -8 -9z"/>
<path d="M7239 998 c-5 -19 -8 -50 -4 -46 7 7 15 48 9 48 -2 0 -4 -1 -5 -2z"/>
<path d="M2750 976 c7 -7 13 -7 20 0 6 6 3 10 -10 10 -13 0 -16 -4 -10 -10z"/>
<path d="M2876 982 c-3 -5 1 -9 9 -9 8 0 12 4 9 9 -3 4 -7 8 -9 8 -2 0 -6 -4
-9 -8z"/>
<path d="M3393 968 c-2 -18 0 -20 7 -8 12 18 13 30 2 30 -4 0 -9 -10 -9 -22z"/>
<path d="M3799 973 c-13 -16 -12 -17 4 -4 9 7 17 15 17 17 0 8 -8 3 -21 -13z"/>
<path d="M4110 980 c0 -5 5 -10 11 -10 5 0 7 5 4 10 -3 6 -8 10 -11 10 -2 0
-4 -4 -4 -10z"/>
<path d="M4750 980 c0 -5 5 -10 11 -10 5 0 7 5 4 10 -3 6 -8 10 -11 10 -2 0
-4 -4 -4 -10z"/>
<path d="M5193 970 c5 -29 13 -33 13 -5 0 14 -4 25 -8 25 -4 0 -7 -9 -5 -20z"/>
<path d="M5430 981 c0 -6 4 -12 8 -15 5 -3 9 1 9 9 0 8 -4 15 -9 15 -4 0 -8
-4 -8 -9z"/>
<path d="M5719 973 c-13 -16 -12 -17 4 -4 9 7 17 15 17 17 0 8 -8 3 -21 -13z"/>
<path d="M6150 981 c0 -5 8 -15 18 -22 15 -12 16 -12 5 2 -7 9 -10 19 -6 22 3
4 1 7 -5 7 -7 0 -12 -4 -12 -9z"/>
<path d="M6393 970 c1 -11 5 -20 9 -20 3 0 6 9 5 20 -1 11 -5 20 -9 20 -3 0
-6 -9 -5 -20z"/>
<path d="M6630 980 c0 -5 5 -10 11 -10 5 0 7 5 4 10 -3 6 -8 10 -11 10 -2 0
-4 -4 -4 -10z"/>
<path d="M7041 976 c-9 -11 -9 -16 1 -22 7 -4 10 -4 6 1 -4 4 -3 14 3 22 6 7
9 13 6 13 -2 0 -10 -6 -16 -14z"/>
<path d="M7115 980 c-3 -5 -1 -10 4 -10 6 0 11 5 11 10 0 6 -2 10 -4 10 -3 0
-8 -4 -11 -10z"/>
<path d="M7390 976 c7 -7 13 -7 20 0 6 6 3 10 -10 10 -13 0 -16 -4 -10 -10z"/>
<path d="M3675 970 c-4 -6 -12 -7 -18 -4 -7 4 -8 3 -4 -1 13 -15 34 -14 34 1
0 17 -4 18 -12 4z"/>
<path d="M3772 956 c1 -14 5 -23 9 -20 7 4 0 44 -7 44 -2 0 -3 -11 -2 -24z"/>
<path d="M4037 973 c-10 -9 -9 -23 1 -23 5 0 9 7 9 15 0 17 -1 18 -10 8z"/>
<path d="M4235 970 c-4 -6 -11 -7 -17 -4 -7 4 -8 2 -4 -5 6 -9 11 -9 22 0 14
11 18 19 10 19 -3 0 -8 -5 -11 -10z"/>
<path d="M4359 978 c-5 -18 -6 -38 -1 -34 7 8 12 36 6 36 -2 0 -4 -1 -5 -2z"/>
<path d="M4463 962 c10 -10 14 -22 10 -27 -5 -4 -2 -5 5 -1 11 6 10 12 -4 27
-9 10 -19 19 -22 19 -3 0 2 -8 11 -18z"/>
<path d="M4677 973 c-10 -9 -9 -23 1 -23 5 0 9 7 9 15 0 17 -1 18 -10 8z"/>
<path d="M4875 970 c-4 -6 -11 -7 -17 -4 -7 4 -8 2 -4 -5 6 -9 11 -9 22 0 14
11 18 19 10 19 -3 0 -8 -5 -11 -10z"/>
<path d="M4999 978 c-5 -18 -6 -38 -1 -34 7 8 12 36 6 36 -2 0 -4 -1 -5 -2z"/>
<path d="M5102 964 c10 -10 20 -16 22 -13 3 3 -5 11 -17 18 -21 13 -21 12 -5
-5z"/>
<path d="M5355 970 c-4 -6 -11 -7 -17 -4 -7 4 -8 2 -4 -5 6 -9 11 -9 22 0 14
11 18 19 10 19 -3 0 -8 -5 -11 -10z"/>
<path d="M5595 971 c-3 -5 -2 -12 3 -15 5 -3 9 1 9 9 0 17 -3 19 -12 6z"/>
<path d="M5692 956 c1 -14 5 -23 9 -20 7 4 0 44 -7 44 -2 0 -3 -11 -2 -24z"/>
<path d="M6555 970 c-4 -6 -10 -8 -15 -5 -4 3 -7 -2 -6 -10 1 -8 4 -16 7 -17
2 -2 3 -1 1 1 -1 2 5 13 15 23 9 10 13 18 10 18 -3 0 -9 -5 -12 -10z"/>
<path d="M7289 963 c-13 -16 -12 -17 4 -4 16 13 21 21 13 21 -2 0 -10 -8 -17
-17z"/>
<path d="M7457 973 c-10 -9 -9 -23 1 -23 5 0 9 7 9 15 0 17 -1 18 -10 8z"/>
<path d="M2696 958 c3 -5 10 -6 15 -3 13 9 11 12 -6 12 -8 0 -12 -4 -9 -9z"/>
<path d="M3700 966 c0 -2 8 -10 18 -17 15 -13 16 -12 3 4 -13 16 -21 21 -21
13z"/>
<path d="M3817 955 c-4 -8 -3 -16 1 -19 4 -3 9 4 9 15 2 23 -3 25 -10 4z"/>
<path d="M4190 961 c0 -6 4 -13 10 -16 6 -3 7 1 4 9 -7 18 -14 21 -14 7z"/>
<path d="M4259 968 c-5 -18 -6 -38 -1 -34 7 8 12 36 6 36 -2 0 -4 -1 -5 -2z"/>
<path d="M4830 961 c0 -6 4 -13 10 -16 6 -3 7 1 4 9 -7 18 -14 21 -14 7z"/>
<path d="M4899 968 c-5 -18 -6 -38 -1 -34 7 8 12 36 6 36 -2 0 -4 -1 -5 -2z"/>
<path d="M5147 959 c7 -7 15 -10 18 -7 3 3 -2 9 -12 12 -14 6 -15 5 -6 -5z"/>
<path d="M5310 961 c0 -6 4 -13 10 -16 6 -3 7 1 4 9 -7 18 -14 21 -14 7z"/>
<path d="M5379 968 c-5 -18 -6 -38 -1 -34 7 8 12 36 6 36 -2 0 -4 -1 -5 -2z"/>
<path d="M5620 966 c0 -2 8 -10 18 -17 15 -13 16 -12 3 4 -13 16 -21 21 -21
13z"/>
<path d="M5737 955 c-4 -8 -3 -16 1 -19 4 -3 9 4 9 15 2 23 -3 25 -10 4z"/>
<path d="M5776 958 c3 -4 11 -5 19 -1 21 7 19 12 -4 10 -11 0 -18 -5 -15 -9z"/>
<path d="M5872 965 c3 -3 16 -8 28 -10 12 -2 20 -1 16 2 -4 4 -16 8 -28 10
-12 2 -19 1 -16 -2z"/>
<path d="M5950 965 c0 -7 30 -13 34 -7 3 4 -4 9 -15 9 -10 1 -19 0 -19 -2z"/>
<path d="M5997 951 c-10 -12 -9 -13 3 -6 8 5 21 10 28 11 24 4 25 13 3 11 -12
-1 -28 -8 -34 -16z"/>
<path d="M6755 961 c8 -7 72 -9 84 -2 6 4 -12 7 -39 7 -27 0 -47 -2 -45 -5z"/>
<path d="M6910 960 c0 -5 5 -10 10 -10 6 0 10 5 10 10 0 6 -4 10 -10 10 -5 0
-10 -4 -10 -10z"/>
<path d="M6940 966 c0 -2 8 -10 18 -17 15 -13 16 -12 3 4 -13 16 -21 21 -21
13z"/>
<path d="M7350 959 c0 -5 5 -7 10 -4 6 3 10 8 10 11 0 2 -4 4 -10 4 -5 0 -10
-5 -10 -11z"/>
<path d="M7635 961 c-3 -5 -2 -12 3 -15 5 -3 9 1 9 9 0 17 -3 19 -12 6z"/>
<path d="M7753 955 c0 -8 4 -12 9 -9 5 3 6 10 3 15 -9 13 -12 11 -12 -6z"/>
<path d="M3295 951 c-3 -5 -2 -12 3 -15 5 -3 9 1 9 9 0 17 -3 19 -12 6z"/>
<path d="M4295 951 c-3 -5 -2 -12 3 -15 5 -3 9 1 9 9 0 17 -3 19 -12 6z"/>
<path d="M4935 951 c-3 -5 -2 -12 3 -15 5 -3 9 1 9 9 0 17 -3 19 -12 6z"/>
<path d="M5253 945 c0 -8 4 -12 9 -9 5 3 6 10 3 15 -9 13 -12 11 -12 -6z"/>
<path d="M5415 951 c-3 -5 -2 -12 3 -15 5 -3 9 1 9 9 0 17 -3 19 -12 6z"/>
<path d="M6493 945 c0 -8 4 -12 9 -9 5 3 6 10 3 15 -9 13 -12 11 -12 -6z"/>
<path d="M2810 946 c0 -2 7 -7 16 -10 8 -3 12 -2 9 4 -6 10 -25 14 -25 6z"/>
<path d="M3016 942 c-3 -4 4 -9 15 -9 23 -2 25 3 4 10 -8 4 -16 3 -19 -1z"/>
<path d="M3067 939 c7 -7 15 -10 18 -7 3 3 -2 9 -12 12 -14 6 -15 5 -6 -5z"/>
<path d="M3180 946 c0 -2 8 -10 18 -17 15 -13 16 -12 3 4 -13 16 -21 21 -21
13z"/>
<path d="M3330 939 c0 -5 5 -7 10 -4 6 3 10 8 10 11 0 2 -4 4 -10 4 -5 0 -10
-5 -10 -11z"/>
<path d="M3890 939 c0 -5 5 -7 10 -4 6 3 10 8 10 11 0 2 -4 4 -10 4 -5 0 -10
-5 -10 -11z"/>
<path d="M4530 939 c0 -5 5 -7 10 -4 6 3 10 8 10 11 0 2 -4 4 -10 4 -5 0 -10
-5 -10 -11z"/>
<path d="M4075 931 c-3 -5 -2 -12 3 -15 5 -3 9 1 9 9 0 17 -3 19 -12 6z"/>
<path d="M4395 931 c-3 -5 -2 -12 3 -15 5 -3 9 1 9 9 0 17 -3 19 -12 6z"/>
<path d="M4715 931 c-3 -5 -2 -12 3 -15 5 -3 9 1 9 9 0 17 -3 19 -12 6z"/>
<path d="M5035 931 c-3 -5 -2 -12 3 -15 5 -3 9 1 9 9 0 17 -3 19 -12 6z"/>
<path d="M5515 931 c-3 -5 -2 -12 3 -15 5 -3 9 1 9 9 0 17 -3 19 -12 6z"/>
<path d="M6635 931 c-3 -5 -2 -12 3 -15 5 -3 9 1 9 9 0 17 -3 19 -12 6z"/>
<path d="M7395 931 c-3 -5 -2 -12 3 -15 5 -3 9 1 9 9 0 17 -3 19 -12 6z"/>
<path d="M3495 921 c-3 -5 -2 -12 3 -15 5 -3 9 1 9 9 0 17 -3 19 -12 6z"/>
<path d="M4015 921 c-3 -5 -2 -12 3 -15 5 -3 9 1 9 9 0 17 -3 19 -12 6z"/>
<path d="M4655 921 c-3 -5 -2 -12 3 -15 5 -3 9 1 9 9 0 17 -3 19 -12 6z"/>
<path d="M5455 921 c-3 -5 -2 -12 3 -15 5 -3 9 1 9 9 0 17 -3 19 -12 6z"/>
<path d="M6295 921 c-3 -5 -2 -12 3 -15 5 -3 9 1 9 9 0 17 -3 19 -12 6z"/>
<path d="M7236 922 c-3 -5 1 -9 9 -9 8 0 12 4 9 9 -3 4 -7 8 -9 8 -2 0 -6 -4
-9 -8z"/>
</g>
</svg>
